<svg xmlns="http://www.w3.org/2000/svg" viewBox="0 0 105 150"><defs/><path fill="#00753A" stroke="#00753A" d="M57.5 9l.5 2-3 1.5L47.5 27l-.5-6.5 5.5-9.5 5-2z" opacity=".639"/><path fill="#00753A" stroke="#00753A" d="M60.5 10l1.5 8.5L51.5 32 48 33q1.8-15.5 12.5-23zM73.5 13L92 26.5l-4.5.5-3.5-5-4.5-1q-5.8 7.7-19 8v-1L76 17.5l-.5-1.5-19 14-.5-1.5 8.5-9.5 9-6zM24.5 14h7L44 23.5l1 4h-1L38.5 21l-9-4 2 3 9.5 5.5 3 5-4.5-3.5q-8.4-8.1-23.5-9.5l8.5-3.5z" opacity=".639"/><path fill="#00753A" stroke="#00753A" d="M65.5 29Q87.8 26.7 95 39.5l5 10L88.5 39l-18-4-14 4-6.5-4.5L65.5 29zM28.5 39l7.5.5-5.5 6.5-8.5 3.5L17.5 61 14 49.5l5.5-7.5 9-3zM52.5 44l.5 1.5L45.5 71 42 59.5 47.5 47l5-3zM56.5 44l5.5 4.5 15 21-6.5 3.5-5.5-4.5-12-19 3.5-5.5z" opacity=".639"/><path stroke="#000" d="M0 0h105v150H0V0zm57 1l-9 7 1 1 9-7-1-1zm18 2l-9 7 2 3 1-1 5-4 6 1v1l-2-1-5 1-1 3-5 3-4 3 1-4-2-7h-5l5-1-3-2-5 3 2 1-5 2-5 12-14-10v-1l6 3-1-3-9-4-1 3h-3l3-1V9l-9 3-2 2 13-3 1 1-17 6 19 5 1 3 2-1 3 2 1 2-9-4q-14-2-19 3l-3-1v2l-2 1-4 5 1 10 2-3 8-7-1 2 2 4 9-6 5 1 1 2-3-2-4 1-2 4-1-1-6 8 5 16 5-13 6-4 1 1-4 8 2 15 5 3 7-21 5-4-4 6q-1 13 6 20l2-12v2h1l-1-4 1-4 1 3-1 6 2 46-1 4 1 30 9 1 4-1-2-15 1-2 1 8h1l-1-20v-2l-2-12 1-2-3-28 1-4-1-3-2-1 5 53v10l-6-61 1-6 10 13 9-3-4-7h3l-3-5-1 2 1 1-4-4 3 1v-1l-6-4 3 1v-3l3 1h2l-9-4 1 3-3-4 15 5 11 13 4 2 2-6-3-10h4v-1L84 39l-2 1 3 1 8 9-13-10 2-1v-1l-3 1-12-1v-1h15l20 14-6-12q-7-11-22-11l1-2 2 1-1-1 5-4 3 3-2-2-3 1-1 2 4-1 3 1 9 2-2-3-13-12-1-2 11 6 3-2L75 3zM52 8l-5 4 1 2v-1l4-3V8zM21 21l-7 3v1l16-1-9-3zm70 8l1 2 2-1-1 2 10 7-2-5-5-4-5-1zM72 54l5 9 4-2-1-3-8-4zm-8 20l4 63h6L64 74z" opacity=".012"/><path fill="#C6BA00" stroke="#C6BA00" d="M21.5 21L32 24.5l-1.5.5-14-1-8 4 1-2 12-5z" opacity=".247"/><path fill="#C6BA00" stroke="#C6BA00" d="M20.5 26q16 .5 24.5 8.5L37.5 38l-15-5-8.5 6 2-8.5-1.5.5-11 10-.5-3.5L6.5 31l14-5zM43.5 37L54 38.5l-.5 1.5-3-1L36 46.5l-6 10 3 .5 7.5-12 10-3v1L41 48.5 31.5 72 27 60.5 36.5 41l7-4zM79.5 38Q91.7 40.8 97 50.5h-2l2 3-2 .5-10.5-13-5-3z" opacity=".247"/><path fill="#C6BA00" stroke="#C6BA00" d="M58 40q25.6-4.4 33 10.5l3 11-1.5 3.5-8-9L58 42.5V40zM52.5 53l4.5 7.5v2l6 82.5q-14.4 4.8-9-11.5l-1-4 1-3-2-40 1-4-1-2 1-5-1-4 1-3-.5-15.5zM59.5 64l3.5 6.5h-1l-.5-1.5-.5 3.5h2l-1 12h1l.5-7.5 9.5 60-5-1.5-1.5-13.5-1 15-6-73zM64 85v15l-1 2 2 9-1 5 1 6h1l-2-37z" opacity=".247"/><path fill="#042611" stroke="#042611" d="M58 8l5 2.5.5 8.5 14-7L93 26.5 86.5 28l-5-6-7.5 4.5 5.5 1.5L98 41.5l4 8-2.5 1.5-7.5-6.5-1.5-2.5q-5.7-6.8-19-6L56 40.5l4.5 5.5 2.5 1.5 15 23-8.5 3.5-5.5-4.5L53 50l-2 3.5L46.5 75 41 57.5 49.5 44l5.5-1-1-2.5 1-2-9-2.5-2.5-4-4.5-2.5-2.5-3.5L13 17.5 31.5 13 46 23l6.5-13 4-1v1L49 14.5l-2 12h1L56.5 11 58 8zm3 2q-11 8-13 23l4-1 10-13-1-9zm13 3l-9 6-9 10 1 1 19-14v2l-12 8-1 2q12 0 17-7l4 1 4 5h4L74 13zm-49 1l-9 4q15 1 24 9l4 4-3-5-9-6-2-3 9 4 5 7h1l-1-4-12-10h-7zm41 15l-16 6 7 4 14-4 18 4 11 11-5-10q-7-13-29-11zM53 44l-5 3-6 13 4 11 7-25v-2zm4 0l-4 6 12 19 6 4 6-3-15-21-5-5z" opacity=".745"/><path fill="#042611" stroke="#042611" d="M29.5 37l9.5 1.5-4 2.5-4.5 7-3-1-5.5 4.5L17.5 63 13 48.5l4.5-6.5 12-5zm-.5 2l-9 3-6 8 4 11 4-11 9-4 5-6-7-1zM42.5 42l1.5.5-5 2.5-5.5 8 .5-1.5 6.5-8.5 2-1zM85.5 43l7.5 8.5-2-1-5.5-7.5zM83.5 56l7.5 8.5-4-3-3.5-5.5z" opacity=".745"/><path fill="#292800" stroke="#292800" d="M85.5 18l6 7-6-7zM16.5 25q21.9-2.4 29.5 9.5l5.5 1.5v1q-10.6-1.6-14 4l1-4 2-1 2 1v-2l2.5-.5q-8.5-8-24.5-8.5l-13 5 .5-1.5.5-1.5 3-1 2-1 3-1z" opacity=".533"/><path fill="#292800" stroke="#292800" d="M5.5 30l.5 1.5-3 9 11-9-.5 1.5 2-1-.5 1.5-1 5.5 3.5-2 1.5.5 3.5-4.5L37 37.5l-6.5.5-2.5-1-.5-2h-2l-3-1-4 5-4 2-2.5-1.5 1-6h-1L10.5 36 5 40.5 4.5 43 2 42Q.3 33 5.5 30zM53.5 37l1.5 2.5v2L51.5 43 39 52.5v2L37.5 56l-.5 2.5L33 73l-5-2.5 1.5-.5 2.5 1.5Q33.6 55.6 42.5 47l8.5-4.5-5.5-1.5v2L43 41.5l5.5-1.5 3 1v-1l-1.5-.5 2.5-.5 1.5.5-.5-2.5zM65.5 37L82 40l1 2.5-1.5-.5L60 39.5l5.5-2.5zM56.5 40l1.5 2.5 2.5 3.5-4-6zM84.5 42l6.5 7.5-7-6 .5-1.5zM34.5 43L32 46.5l-5 17 1 3.5q-4.8.8-2-11.5l2-5.5 2-.5-.5-1.5 1.5-1.5 3.5-3.5zM62.5 46q13.8 1.3 20.5 9.5l.5 1.5 3.5 1.5-.5 2.5-7-8-4.5-1-.5-2h-2l-10-4z" opacity=".533"/><path fill="#292800" stroke="#292800" d="M35.5 48l2.5.5-4 2 1 2-2 4.5-3-.5 2-1v-2l3.5-5.5zM51 50l2 2.5.5 1.5-1.5-.5 1 17-1 4 1 5-1 2 1 4v2l1 41-1 4 1 12.5q12.6 4.7 9-7.5l-7-76 2-1 6 68-1 2 2 14-1 2.5-12-1-1-30.5 1-4-2-46 1-6-2-3 2-6.5zM94 56q4-1.4 2 5.5L93.5 68l-1-2-2.5-.5-1.5-4.5 4.5 3.5 1-8.5z" opacity=".533"/></svg>